<?xml version="1.0" encoding="UTF-8"?>
<!--Generator: Apple Native CoreSVG 232.5-->
<!DOCTYPE svg
PUBLIC "-//W3C//DTD SVG 1.1//EN"
       "http://www.w3.org/Graphics/SVG/1.1/DTD/svg11.dtd">
<svg version="1.1" xmlns="http://www.w3.org/2000/svg" xmlns:xlink="http://www.w3.org/1999/xlink" width="29.1328" height="23.0977">
 <g>
  <rect height="23.0977" opacity="0" width="29.1328" x="0" y="0"/>
  <path d="M19.0781 0.996094L20.0156 2.05078C20.543 2.63672 20.8242 2.82422 21.75 2.82422L25.1016 2.82422C27.5391 2.82422 28.7812 4.03125 28.7812 6.44531L28.7812 18.7148C28.7812 21.1289 27.5391 22.3477 25.1016 22.3477L3.67969 22.3477C1.23047 22.3477 0 21.1289 0 18.7148L0 6.44531C0 4.03125 1.23047 2.82422 3.67969 2.82422L6.94922 2.82422C7.86328 2.82422 8.15625 2.625 8.68359 2.05078L9.62109 0.996094C10.207 0.351562 10.8047 0 12.0117 0L16.6875 0C17.8945 0 18.4922 0.351562 19.0781 0.996094ZM8.13281 9.375L6.25781 12.0117C5.96484 12.4336 6.07031 12.9492 6.62109 12.9492L7.86328 12.9492C8.4375 16.207 11.0742 18.4453 14.4141 18.4453C15.8789 18.4453 17.3438 17.9414 18.3633 17.0977C18.9258 16.6641 19.0664 16.043 18.6445 15.6094C18.2344 15.1641 17.707 15.2344 17.2383 15.5742C16.3945 16.2422 15.5508 16.6055 14.4141 16.6055C12.082 16.6055 10.1484 15.0352 9.62109 12.9492L10.8516 12.9492C11.4023 12.9492 11.5312 12.4336 11.2266 12.0117L9.31641 9.375C9.01172 8.94141 8.47266 8.90625 8.13281 9.375ZM10.4414 6.67969C9.87891 7.11328 9.73828 7.72266 10.1602 8.15625C10.582 8.60156 11.0977 8.54297 11.5664 8.19141C12.3984 7.51172 13.2539 7.17188 14.3906 7.17188C16.7227 7.17188 18.6562 8.74219 19.1836 10.8164L17.8711 10.8164C17.332 10.8164 17.2031 11.3438 17.5078 11.7539L19.4062 14.4023C19.7227 14.8359 20.2617 14.8711 20.6016 14.4023L22.4766 11.7539C22.7695 11.332 22.6641 10.8164 22.1133 10.8164L20.9414 10.8164C20.3672 7.55859 17.7305 5.32031 14.3906 5.32031C12.9258 5.32031 11.4609 5.83594 10.4414 6.67969Z" fill="#ffffff" fill-opacity="0.85"/>
 </g>
</svg>
