<?xml version="1.0" encoding="UTF-8"?>
<!--Generator: Apple Native CoreSVG 232.5-->
<!DOCTYPE svg
PUBLIC "-//W3C//DTD SVG 1.1//EN"
       "http://www.w3.org/Graphics/SVG/1.1/DTD/svg11.dtd">
<svg version="1.1" xmlns="http://www.w3.org/2000/svg" xmlns:xlink="http://www.w3.org/1999/xlink" width="26.1797" height="25.8867">
 <g>
  <rect height="25.8867" opacity="0" width="26.1797" x="0" y="0"/>
  <path d="M25.8281 6.9375L25.8281 15.9141C25.8281 19.3477 23.9531 21.2695 20.4609 21.2695L12.5391 21.2695L8.30859 25.1367C7.75781 25.6523 7.41797 25.8867 6.96094 25.8867C6.29297 25.8867 5.91797 25.4062 5.91797 24.6797L5.91797 21.2695L5.36719 21.2695C1.875 21.2695 0 19.3594 0 15.9141L0 6.9375C0 3.49219 1.875 1.57031 5.36719 1.57031L20.4609 1.57031C23.9531 1.57031 25.8281 3.50391 25.8281 6.9375ZM16.5703 6.76172L11.5547 14.8008L9.17578 11.7305C8.89453 11.3438 8.625 11.2383 8.29688 11.2383C7.75781 11.2383 7.35938 11.6719 7.35938 12.1992C7.35938 12.4688 7.45312 12.7266 7.62891 12.9609L10.5703 16.5703C10.8867 16.9805 11.2031 17.1445 11.6133 17.1445C12.0117 17.1445 12.3516 16.957 12.5859 16.5703L18.0938 7.89844C18.2461 7.66406 18.3984 7.38281 18.3984 7.125C18.3984 6.57422 17.918 6.22266 17.4023 6.22266C17.0859 6.22266 16.7812 6.41016 16.5703 6.76172Z" fill="#ffffff" fill-opacity="0.85"/>
 </g>
</svg>
