<?xml version="1.0" encoding="UTF-8"?>
<!--Generator: Apple Native CoreSVG 232.5-->
<!DOCTYPE svg
PUBLIC "-//W3C//DTD SVG 1.1//EN"
       "http://www.w3.org/Graphics/SVG/1.1/DTD/svg11.dtd">
<svg version="1.1" xmlns="http://www.w3.org/2000/svg" xmlns:xlink="http://www.w3.org/1999/xlink" width="26.1797" height="25.8867">
 <g>
  <rect height="25.8867" opacity="0" width="26.1797" x="0" y="0"/>
  <path d="M25.8281 6.9375L25.8281 15.9141C25.8281 19.3477 23.9531 21.2695 20.4609 21.2695L12.5391 21.2695L8.30859 25.1367C7.75781 25.6523 7.41797 25.8867 6.96094 25.8867C6.29297 25.8867 5.91797 25.4062 5.91797 24.6797L5.91797 21.2695L5.36719 21.2695C1.875 21.2695 0 19.3594 0 15.9141L0 6.9375C0 3.49219 1.875 1.57031 5.36719 1.57031L20.4609 1.57031C23.9531 1.57031 25.8281 3.50391 25.8281 6.9375ZM11.6133 16.2656C11.6133 16.9688 12.2227 17.5195 12.9258 17.5195C13.6172 17.5195 14.2266 16.9805 14.2266 16.2656C14.2266 15.5625 13.6289 15.0117 12.9258 15.0117C12.2109 15.0117 11.6133 15.5742 11.6133 16.2656ZM11.8125 6.25781L11.9648 12.6328C11.9766 13.2539 12.3164 13.5938 12.9258 13.5938C13.5 13.5938 13.8398 13.2656 13.8516 12.6328L14.0273 6.26953C14.0391 5.64844 13.5586 5.17969 12.9141 5.17969C12.2578 5.17969 11.8008 5.63672 11.8125 6.25781Z" fill="#ffffff" fill-opacity="0.85"/>
 </g>
</svg>
