<?xml version="1.0" encoding="UTF-8"?>
<!--Generator: Apple Native CoreSVG 232.5-->
<!DOCTYPE svg
PUBLIC "-//W3C//DTD SVG 1.1//EN"
       "http://www.w3.org/Graphics/SVG/1.1/DTD/svg11.dtd">
<svg version="1.1" xmlns="http://www.w3.org/2000/svg" xmlns:xlink="http://www.w3.org/1999/xlink" width="22.6729" height="26.5195">
 <g>
  <rect height="26.5195" opacity="0" width="22.6729" x="0" y="0"/>
  <path d="M4.55128 9.89062L4.55128 12.1992C4.55128 16.1953 7.15284 18.8438 11.1607 18.8438C12.3675 18.8438 13.4479 18.6036 14.3655 18.1549L15.6146 19.4015C14.5847 19.9848 13.3814 20.3492 12.0513 20.4609L12.0513 23.1914L16.3989 23.1914C16.8911 23.1914 17.2778 23.5898 17.2778 24.082C17.2778 24.5742 16.8911 24.9609 16.3989 24.9609L5.92237 24.9609C5.43018 24.9609 5.04346 24.5742 5.04346 24.082C5.04346 23.5898 5.43018 23.1914 5.92237 23.1914L10.2817 23.1914L10.2817 20.4609C5.80518 20.0859 2.78175 16.8633 2.78175 12.2695L2.78175 9.89062C2.78175 9.39844 3.16846 9.01172 3.66065 9.01172C4.15284 9.01172 4.55128 9.39844 4.55128 9.89062ZM12.3612 16.1544C11.9905 16.266 11.5885 16.3242 11.1607 16.3242C8.82862 16.3242 7.24659 14.5781 7.24659 12.082L7.24659 11.0497ZM19.5513 9.89062L19.5513 12.2695C19.5513 13.6891 19.2614 14.9777 18.7276 16.0907L17.3714 14.7363C17.6419 13.9762 17.7817 13.1238 17.7817 12.1992L17.7817 9.89062C17.7817 9.39844 18.1685 9.01172 18.6607 9.01172C19.1528 9.01172 19.5513 9.39844 19.5513 9.89062ZM15.0747 4.24219L15.0747 12.082C15.0747 12.1999 15.0712 12.3161 15.061 12.4288L7.24659 4.62456L7.24659 4.24219C7.24659 1.73438 8.82862 0 11.1607 0C13.5044 0 15.0747 1.73438 15.0747 4.24219Z" fill="#ffffff" fill-opacity="0.85"/>
  <path d="M19.7739 21.6211C20.1255 21.9727 20.6997 21.9727 21.0513 21.6211C21.3911 21.2578 21.4028 20.6953 21.0513 20.3438L2.92237 2.22656C2.57081 1.88672 1.98487 1.875 1.63331 2.22656C1.29346 2.57812 1.29346 3.16406 1.63331 3.50391Z" fill="#ffffff" fill-opacity="0.85"/>
 </g>
</svg>
