<?xml version="1.0" encoding="UTF-8"?>
<!--Generator: Apple Native CoreSVG 232.5-->
<!DOCTYPE svg
PUBLIC "-//W3C//DTD SVG 1.1//EN"
       "http://www.w3.org/Graphics/SVG/1.1/DTD/svg11.dtd">
<svg version="1.1" xmlns="http://www.w3.org/2000/svg" xmlns:xlink="http://www.w3.org/1999/xlink" width="27.9028" height="10.3477">
 <g>
  <rect height="10.3477" opacity="0" width="27.9028" x="0" y="0"/>
  <path d="M13.7756 0C8.70141 0 3.93188 1.06641 1.55297 3.44531C0.474848 4.52344-0.0642142 5.82422 0.00609831 7.39453C0.0529733 8.34375 0.345942 9.1875 0.896723 9.73828C1.30688 10.1602 1.8811 10.3945 2.54907 10.2891L6.89672 9.55078C7.55297 9.44531 8.01 9.24609 8.30297 8.94141C8.68969 8.56641 8.80688 8.00391 8.80688 7.26562L8.80688 6.08203C8.80688 5.89453 8.88891 5.75391 9.0061 5.63672C9.12329 5.49609 9.29907 5.4375 9.42797 5.40234C10.2248 5.21484 11.842 5.03906 13.7756 5.03906C15.7092 5.03906 17.3147 5.17969 18.1233 5.41406C18.2405 5.44922 18.4045 5.51953 18.5334 5.63672C18.6389 5.75391 18.7092 5.88281 18.7209 6.07031L18.7327 7.26562C18.7444 8.00391 18.8616 8.56641 19.2366 8.94141C19.5413 9.24609 19.9983 9.44531 20.6545 9.55078L24.9436 10.2773C25.635 10.3945 26.2209 10.1484 26.678 9.70312C27.2288 9.16406 27.5334 8.34375 27.5569 7.38281C27.592 5.80078 26.9827 4.5 25.928 3.44531C23.5491 1.06641 18.8498 0 13.7756 0Z" fill="#ffffff" fill-opacity="0.85"/>
 </g>
</svg>
