<?xml version="1.0" encoding="UTF-8"?>
<!--Generator: Apple Native CoreSVG 232.5-->
<!DOCTYPE svg
PUBLIC "-//W3C//DTD SVG 1.1//EN"
       "http://www.w3.org/Graphics/SVG/1.1/DTD/svg11.dtd">
<svg version="1.1" xmlns="http://www.w3.org/2000/svg" xmlns:xlink="http://www.w3.org/1999/xlink" width="24.7705" height="26.3965">
 <g>
  <rect height="26.3965" opacity="0" width="24.7705" x="0" y="0"/>
  <path d="M17.7767 22.6147C17.6239 23.1691 17.1391 23.5401 16.5044 23.5401C15.9653 23.5401 15.5083 23.3174 14.9692 22.8018L9.97706 18.0674C9.89503 17.9971 9.80128 17.9619 9.68409 17.9619L6.32081 17.9619C4.73878 17.9619 3.87159 17.0948 3.87159 15.3955L3.87159 11.0362C3.87159 10.2735 4.0487 9.67605 4.39052 9.25196ZM17.8286 4.25101L17.8286 16.243L9.95934 8.37827C9.9654 8.37405 9.97126 8.36926 9.97706 8.36429L14.9692 3.67679C15.5669 3.10257 15.9419 2.86819 16.481 2.86819C17.2778 2.86819 17.8286 3.48929 17.8286 4.25101Z" fill="#ffffff" fill-opacity="0.85"/>
  <path d="M21.8716 24.7705C22.2232 25.1221 22.7974 25.1221 23.1489 24.7705C23.4888 24.4073 23.5005 23.8448 23.1489 23.4932L3.07471 3.43069C2.72315 3.07913 2.13721 3.07913 1.78565 3.43069C1.44581 3.77054 1.44581 4.36819 1.78565 4.70804Z" fill="#ffffff" fill-opacity="0.85"/>
 </g>
</svg>
