<?xml version="1.0" encoding="UTF-8"?>
<!--Generator: Apple Native CoreSVG 232.5-->
<!DOCTYPE svg
PUBLIC "-//W3C//DTD SVG 1.1//EN"
       "http://www.w3.org/Graphics/SVG/1.1/DTD/svg11.dtd">
<svg version="1.1" xmlns="http://www.w3.org/2000/svg" xmlns:xlink="http://www.w3.org/1999/xlink" width="31.8047" height="22.6497">
 <g>
  <rect height="22.6497" opacity="0" width="31.8047" x="0" y="0"/>
  <path d="M26.8828 22.4752C27.2812 22.7682 27.8555 22.651 28.1719 22.1823C30.2227 19.2174 31.4531 15.4557 31.4531 11.319C31.4531 7.17056 30.1875 3.43228 28.1719 0.455716C27.8555-0.0247524 27.2812-0.130221 26.8828 0.162748C26.4375 0.467435 26.3789 1.01822 26.6953 1.49869C28.5117 4.18228 29.6602 7.55728 29.6602 11.319C29.6602 15.069 28.5117 18.4674 26.6953 21.1393C26.3789 21.6198 26.4375 22.1706 26.8828 22.4752Z" fill="#ffffff" fill-opacity="0.85"/>
  <path d="M22.4883 19.3698C22.9219 19.6627 23.4609 19.5573 23.7773 19.112C25.2773 17.0495 26.1562 14.2135 26.1562 11.319C26.1562 8.42447 25.2891 5.56509 23.7773 3.52603C23.4609 3.08072 22.9219 2.97525 22.4883 3.26822C22.0547 3.56119 21.9844 4.11197 22.3242 4.59244C23.6016 6.39712 24.3398 8.8229 24.3398 11.319C24.3398 13.8151 23.5781 16.2174 22.3242 18.0456C21.9961 18.526 22.0547 19.0768 22.4883 19.3698Z" fill="#ffffff" fill-opacity="0.85"/>
  <path d="M18.1406 16.3112C18.5273 16.5807 19.0781 16.4987 19.3945 16.0417C20.2969 14.8581 20.8359 13.112 20.8359 11.319C20.8359 9.52603 20.2969 7.79165 19.3945 6.59634C19.0781 6.13931 18.5273 6.04556 18.1406 6.32681C17.6602 6.65494 17.5898 7.24087 17.9531 7.72134C18.6328 8.65884 19.0195 9.95962 19.0195 11.319C19.0195 12.6784 18.6211 13.9674 17.9531 14.9167C17.6016 15.4088 17.6602 15.9713 18.1406 16.3112Z" fill="#ffffff" fill-opacity="0.85"/>
  <path d="M12.6328 21.6667C13.4062 21.6667 13.957 21.1159 13.957 20.3542L13.957 2.37759C13.957 1.61587 13.4062 0.994779 12.6094 0.994779C12.0586 0.994779 11.6836 1.22915 11.0977 1.80337L6.09375 6.49087C6.02344 6.56119 5.91797 6.59634 5.80078 6.59634L2.44922 6.59634C0.855469 6.59634 0 7.47525 0 9.16275L0 13.5221C0 15.2213 0.855469 16.0885 2.44922 16.0885L5.80078 16.0885C5.91797 16.0885 6.02344 16.1237 6.09375 16.194L11.0977 20.9284C11.625 21.444 12.082 21.6667 12.6328 21.6667Z" fill="#ffffff" fill-opacity="0.85"/>
 </g>
</svg>
