<?xml version="1.0" encoding="UTF-8"?>
<!--Generator: Apple Native CoreSVG 232.5-->
<!DOCTYPE svg
PUBLIC "-//W3C//DTD SVG 1.1//EN"
       "http://www.w3.org/Graphics/SVG/1.1/DTD/svg11.dtd">
<svg version="1.1" xmlns="http://www.w3.org/2000/svg" xmlns:xlink="http://www.w3.org/1999/xlink" width="29.6484" height="30.7764">
 <g>
  <rect height="30.7764" opacity="0" width="29.6484" x="0" y="0"/>
  <path d="M21.4922 26.1519C21.4922 26.6792 21.0586 27.1011 20.543 27.1011L8.75391 27.1011C8.23828 27.1011 7.80469 26.6792 7.80469 26.1519C7.80469 25.6245 8.23828 25.2026 8.75391 25.2026L20.543 25.2026C21.0586 25.2026 21.4922 25.6245 21.4922 26.1519ZM1.57031 4.27296L2.85864 5.56196C2.24571 5.6307 1.88672 6.04829 1.88672 6.69874L1.88672 20.0933C1.88672 20.8081 2.32031 21.2417 3.04688 21.2417L18.5303 21.2417L20.416 23.1284L3.01172 23.1284C1.14844 23.1284 0 21.98 0 20.1167L0 6.6753C0 5.44794 0.498306 4.53074 1.37351 4.05056C1.43278 4.12843 1.49892 4.20243 1.57031 4.27296ZM29.2969 6.6753L29.2969 20.1167C29.2969 21.5952 28.5812 22.6236 27.3468 22.9827L25.6077 21.2417L26.25 21.2417C26.9766 21.2417 27.4102 20.8081 27.4102 20.0933L27.4102 6.69874C27.4102 5.98389 26.9766 5.5503 26.25 5.5503L9.93251 5.5503L8.04775 3.66358L26.2852 3.66358C28.1602 3.66358 29.2969 4.81202 29.2969 6.6753Z" fill="#ffffff" fill-opacity="0.85"/>
  <path d="M25.3125 25.7534C25.6641 26.105 26.2383 26.105 26.5898 25.7534C26.9297 25.4019 26.9414 24.8276 26.5898 24.4761L3.98438 1.87061C3.64453 1.51905 3.05859 1.50733 2.69531 1.87061C2.35547 2.21046 2.35547 2.80811 2.69531 3.14796Z" fill="#ffffff" fill-opacity="0.85"/>
 </g>
</svg>
