<?xml version="1.0" encoding="UTF-8"?>
<!--Generator: Apple Native CoreSVG 232.5-->
<!DOCTYPE svg
PUBLIC "-//W3C//DTD SVG 1.1//EN"
       "http://www.w3.org/Graphics/SVG/1.1/DTD/svg11.dtd">
<svg version="1.1" xmlns="http://www.w3.org/2000/svg" xmlns:xlink="http://www.w3.org/1999/xlink" width="35.2324" height="28.1543">
 <g>
  <rect height="28.1543" opacity="0" width="35.2324" x="0" y="0"/>
  <path d="M20.0498 23.5869L7.78418 23.5869C5.42871 23.5869 4.02246 22.2276 4.02246 19.8721L4.02246 8.25881C4.02246 8.03597 4.03613 7.82203 4.067 7.62029ZM32.792 7.97756L32.792 20.1651C32.792 21.126 32.1943 21.794 31.2803 21.794C30.8584 21.794 30.3896 21.5713 29.9912 21.2198L25.7256 17.5283L25.7256 10.6026L29.9912 6.92288C30.3896 6.57131 30.8584 6.34866 31.2803 6.34866C32.1943 6.34866 32.792 7.01663 32.792 7.97756ZM24.1318 8.25881L24.1318 19.8721C24.1318 20.1068 24.1179 20.3317 24.0865 20.5433L8.0908 4.55569L20.4873 4.55569C22.8428 4.55569 24.1318 5.91506 24.1318 8.25881Z" fill="#ffffff" fill-opacity="0.85"/>
  <path d="M25.0107 26.2823C25.3623 26.6338 25.9482 26.6338 26.2881 26.2823C26.6396 25.9307 26.6396 25.3565 26.2881 25.0049L3.14355 1.8721C2.79199 1.52053 2.21777 1.52053 1.85449 1.8721C1.51465 2.21194 1.51465 2.8096 1.85449 3.14944Z" fill="#ffffff" fill-opacity="0.85"/>
 </g>
</svg>
