<?xml version="1.0" encoding="UTF-8"?>
<!--Generator: Apple Native CoreSVG 232.5-->
<!DOCTYPE svg
PUBLIC "-//W3C//DTD SVG 1.1//EN"
       "http://www.w3.org/Graphics/SVG/1.1/DTD/svg11.dtd">
<svg version="1.1" xmlns="http://www.w3.org/2000/svg" xmlns:xlink="http://www.w3.org/1999/xlink" width="30.3516" height="19.043">
 <g>
  <rect height="19.043" opacity="0" width="30.3516" x="0" y="0"/>
  <path d="M5.34375 19.0312L17.9297 19.0312C20.2852 19.0312 21.6914 17.6719 21.6914 15.3164L21.6914 3.70312C21.6914 1.35938 20.4023 0 18.0469 0L5.34375 0C3.09375 0 1.58203 1.35938 1.58203 3.70312L1.58203 15.3164C1.58203 17.6719 2.98828 19.0312 5.34375 19.0312ZM23.2852 12.9727L27.5508 16.6641C27.9492 17.0156 28.418 17.2383 28.8398 17.2383C29.7539 17.2383 30.3516 16.5703 30.3516 15.6094L30.3516 3.42188C30.3516 2.46094 29.7539 1.79297 28.8398 1.79297C28.418 1.79297 27.9492 2.01562 27.5508 2.36719L23.2852 6.04688Z" fill="#ffffff" fill-opacity="0.85"/>
 </g>
</svg>
